<svg xmlns="http://www.w3.org/2000/svg" viewBox="0 0 188.97 33.7"><defs><style>.cls-1{fill:#231815;}</style></defs><g id="레이어_2" data-name="레이어 2"><g id="레이어_1-2" data-name="레이어 1"><path class="cls-1" d="M26.06,0V6.58H17.14V33.7H8.93V6.58H0V0Z"/><path class="cls-1" d="M38.4,6.58v6.81h11v6.34h-11v7.39H50.83V33.7H30.19V0H50.83V6.58Z"/><path class="cls-1" d="M102.53,0,93.74,33.7H83.81L78.43,11.52,72.86,33.7H62.93L54.38,0h8.79L68,24.53,74,0h9L88.8,24.53,93.7,0Z"/><path class="cls-1" d="M122.63,27.74H110.05l-2,6H99.45L111.64,0h9.5l12.19,33.7h-8.68Zm-2.11-6.33L116.34,9.07l-4.13,12.34Z"/><path class="cls-1" d="M154.21,33.7l-7-12.72h-2V33.7H137V0h13.78a15.14,15.14,0,0,1,6.79,1.39,9.61,9.61,0,0,1,4.2,3.82,10.6,10.6,0,0,1,1.39,5.4,10,10,0,0,1-1.9,6,10.13,10.13,0,0,1-5.59,3.74l7.78,13.35Zm-9-18.53h5.09a4.63,4.63,0,0,0,3.38-1.11,4.16,4.16,0,0,0,1.13-3.12,4,4,0,0,0-1.13-3,4.63,4.63,0,0,0-3.38-1.1h-5.09Z"/><path class="cls-1" d="M176.53,6.58v6.81h11v6.34h-11v7.39H189V33.7H168.33V0H189V6.58Z"/></g></g></svg>